<svg xmlns="http://www.w3.org/2000/svg" xmlns:xlink="http://www.w3.org/1999/xlink" contentStyleType="text/css" data-diagram-type="SEQUENCE" height="647px" preserveAspectRatio="none" style="width:1768px;height:647px;background:#FFFFFF;" version="1.1" viewBox="0 0 1768 647" width="1768px" zoomAndPan="magnify"><defs/><g><rect fill="#F8CECC" height="635.7031" style="stroke:#181818;stroke-width:0.5;" width="281.8467" x="61.104" y="6"/><text fill="#000000" font-family="sans-serif" font-size="13" font-weight="bold" lengthAdjust="spacing" textLength="35.7246" x="184.165" y="18.5684">Netty</text><rect fill="#D5E8D4" height="635.7031" style="stroke:#181818;stroke-width:0.5;" width="168.0703" x="344.9507" y="6"/><text fill="#000000" font-family="sans-serif" font-size="13" font-weight="bold" lengthAdjust="spacing" textLength="86.3535" x="385.8091" y="18.5684">ReactorNetty</text><rect fill="#FFF2CC" height="635.7031" style="stroke:#181818;stroke-width:0.5;" width="1194.5771" x="567.4731" y="6"/><text fill="#000000" font-family="sans-serif" font-size="13" font-weight="bold" lengthAdjust="spacing" textLength="55.8911" x="1136.8162" y="18.5684">WebFlux</text><g><title>Client</title><rect fill="#000000" fill-opacity="0.00000" height="480.7266" width="8" x="23.7524" y="81.4883"/><line style="stroke:#181818;stroke-width:0.5;stroke-dasharray:5,5;" x1="27" x2="27" y1="81.4883" y2="562.2148"/></g><g><title>SocketChannel.Client.</title><rect fill="#000000" fill-opacity="0.00000" height="480.7266" width="8" x="142.3389" y="81.4883"/><line style="stroke:#181818;stroke-width:0.5;stroke-dasharray:5,5;" x1="146.104" x2="146.104" y1="81.4883" y2="562.2148"/></g><g><title>EventLoop_N</title><rect fill="#000000" fill-opacity="0.00000" height="480.7266" width="8" x="284.2622" y="81.4883"/><line style="stroke:#181818;stroke-width:0.5;stroke-dasharray:5,5;" x1="287.5737" x2="287.5737" y1="81.4883" y2="562.2148"/></g><g><title>HttpServerOperations</title><rect fill="#000000" fill-opacity="0.00000" height="480.7266" width="8" x="424.9858" y="81.4883"/><line style="stroke:#181818;stroke-width:0.5;stroke-dasharray:5,5;" x1="428.9507" x2="428.9507" y1="81.4883" y2="562.2148"/></g><g><title>DispatcherHandler</title><rect fill="#000000" fill-opacity="0.00000" height="480.7266" width="8" x="637.439" y="81.4883"/><line style="stroke:#181818;stroke-width:0.5;stroke-dasharray:5,5;" x1="640.4731" x2="640.4731" y1="81.4883" y2="562.2148"/></g><g><title>RequestMappingHandlerAdapter</title><rect fill="#000000" fill-opacity="0.00000" height="480.7266" width="8" x="834.4429" y="81.4883"/><line style="stroke:#181818;stroke-width:0.5;stroke-dasharray:5,5;" x1="838.4048" x2="838.4048" y1="81.4883" y2="562.2148"/></g><g><title>ResponseBodyResultHandler</title><rect fill="#000000" fill-opacity="0.00000" height="480.7266" width="8" x="1064.7104" y="81.4883"/><line style="stroke:#181818;stroke-width:0.5;stroke-dasharray:5,5;" x1="1068.481" x2="1068.481" y1="81.4883" y2="562.2148"/></g><g><title>EncoderHttpMessageWriter</title><rect fill="#000000" fill-opacity="0.00000" height="480.7266" width="8" x="1276.374" y="81.4883"/><line style="stroke:#181818;stroke-width:0.5;stroke-dasharray:5,5;" x1="1279.9399" x2="1279.9399" y1="81.4883" y2="562.2148"/></g><g><title>Jackson2JsonEncoder</title><rect fill="#000000" fill-opacity="0.00000" height="480.7266" width="8" x="1463.7495" y="81.4883"/><line style="stroke:#181818;stroke-width:0.5;stroke-dasharray:5,5;" x1="1466.8081" x2="1466.8081" y1="81.4883" y2="562.2148"/></g><g><title>ReactorServerHttpResponse</title><rect fill="#000000" fill-opacity="0.00000" height="480.7266" width="8" x="1653.3706" y="81.4883"/><line style="stroke:#181818;stroke-width:0.5;stroke-dasharray:5,5;" x1="1656.6909" x2="1656.6909" y1="81.4883" y2="562.2148"/></g><g class="participant participant-head" data-participant="Client"><text fill="#000000" font-family="sans-serif" font-size="14" lengthAdjust="spacing" textLength="39.5049" x="5" y="78.5352">Client</text><ellipse cx="27.7524" cy="13.5" fill="#E2E2F0" rx="8" ry="8" style="stroke:#181818;stroke-width:0.5;"/><path d="M27.7524,21.5 L27.7524,48.5 M14.7524,29.5 L40.7524,29.5 M27.7524,48.5 L14.7524,63.5 M27.7524,48.5 L40.7524,63.5" fill="none" style="stroke:#181818;stroke-width:0.5;"/></g><g class="participant participant-tail" data-participant="Client"><text fill="#000000" font-family="sans-serif" font-size="14" lengthAdjust="spacing" textLength="39.5049" x="5" y="574.75">Client</text><ellipse cx="27.7524" cy="586.2031" fill="#E2E2F0" rx="8" ry="8" style="stroke:#181818;stroke-width:0.5;"/><path d="M27.7524,594.2031 L27.7524,621.2031 M14.7524,602.2031 L40.7524,602.2031 M27.7524,621.2031 L14.7524,636.2031 M27.7524,621.2031 L40.7524,636.2031" fill="none" style="stroke:#181818;stroke-width:0.5;"/></g><g class="participant participant-head" data-participant="SocketChannel"><rect fill="#E2E2F0" height="30.4883" rx="2.5" ry="2.5" style="stroke:#181818;stroke-width:0.5;" width="162.4697" x="65.104" y="50"/><text fill="#000000" font-family="sans-serif" font-size="14" lengthAdjust="spacing" textLength="148.4697" x="72.104" y="70.5352">SocketChannel(Client)</text></g><g class="participant participant-tail" data-participant="SocketChannel"><rect fill="#E2E2F0" height="30.4883" rx="2.5" ry="2.5" style="stroke:#181818;stroke-width:0.5;" width="162.4697" x="65.104" y="561.2148"/><text fill="#000000" font-family="sans-serif" font-size="14" lengthAdjust="spacing" textLength="148.4697" x="72.104" y="581.75">SocketChannel(Client)</text></g><g class="participant participant-head" data-participant="EventLoop_N"><rect fill="#E2E2F0" height="30.4883" rx="2.5" ry="2.5" style="stroke:#181818;stroke-width:0.5;" width="101.377" x="237.5737" y="50"/><text fill="#000000" font-family="sans-serif" font-size="14" lengthAdjust="spacing" textLength="87.377" x="244.5737" y="70.5352">EventLoop_N</text></g><g class="participant participant-tail" data-participant="EventLoop_N"><rect fill="#E2E2F0" height="30.4883" rx="2.5" ry="2.5" style="stroke:#181818;stroke-width:0.5;" width="101.377" x="237.5737" y="561.2148"/><text fill="#000000" font-family="sans-serif" font-size="14" lengthAdjust="spacing" textLength="87.377" x="244.5737" y="581.75">EventLoop_N</text></g><g class="participant participant-head" data-participant="HttpServerOperations"><rect fill="#E2E2F0" height="30.4883" rx="2.5" ry="2.5" style="stroke:#181818;stroke-width:0.5;" width="160.0703" x="348.9507" y="50"/><text fill="#000000" font-family="sans-serif" font-size="14" lengthAdjust="spacing" textLength="146.0703" x="355.9507" y="70.5352">HttpServerOperations</text></g><g class="participant participant-tail" data-participant="HttpServerOperations"><rect fill="#E2E2F0" height="30.4883" rx="2.5" ry="2.5" style="stroke:#181818;stroke-width:0.5;" width="160.0703" x="348.9507" y="561.2148"/><text fill="#000000" font-family="sans-serif" font-size="14" lengthAdjust="spacing" textLength="146.0703" x="355.9507" y="581.75">HttpServerOperations</text></g><g class="participant participant-head" data-participant="DispatcherHandler"><rect fill="#E2E2F0" height="30.4883" rx="2.5" ry="2.5" style="stroke:#181818;stroke-width:0.5;" width="139.9316" x="571.4731" y="50"/><text fill="#000000" font-family="sans-serif" font-size="14" lengthAdjust="spacing" textLength="125.9316" x="578.4731" y="70.5352">DispatcherHandler</text></g><g class="participant participant-tail" data-participant="DispatcherHandler"><rect fill="#E2E2F0" height="30.4883" rx="2.5" ry="2.5" style="stroke:#181818;stroke-width:0.5;" width="139.9316" x="571.4731" y="561.2148"/><text fill="#000000" font-family="sans-serif" font-size="14" lengthAdjust="spacing" textLength="125.9316" x="578.4731" y="581.75">DispatcherHandler</text></g><g class="participant participant-head" data-participant="RequestMappingHandlerAdapter"><rect fill="#E2E2F0" height="30.4883" rx="2.5" ry="2.5" style="stroke:#181818;stroke-width:0.5;" width="234.0762" x="721.4048" y="50"/><text fill="#000000" font-family="sans-serif" font-size="14" lengthAdjust="spacing" textLength="220.0762" x="728.4048" y="70.5352">RequestMappingHandlerAdapter</text></g><g class="participant participant-tail" data-participant="RequestMappingHandlerAdapter"><rect fill="#E2E2F0" height="30.4883" rx="2.5" ry="2.5" style="stroke:#181818;stroke-width:0.5;" width="234.0762" x="721.4048" y="561.2148"/><text fill="#000000" font-family="sans-serif" font-size="14" lengthAdjust="spacing" textLength="220.0762" x="728.4048" y="581.75">RequestMappingHandlerAdapter</text></g><g class="participant participant-head" data-participant="ResponseBodyResultHandler"><rect fill="#E2E2F0" height="30.4883" rx="2.5" ry="2.5" style="stroke:#181818;stroke-width:0.5;" width="206.459" x="965.481" y="50"/><text fill="#000000" font-family="sans-serif" font-size="14" lengthAdjust="spacing" textLength="192.459" x="972.481" y="70.5352">ResponseBodyResultHandler</text></g><g class="participant participant-tail" data-participant="ResponseBodyResultHandler"><rect fill="#E2E2F0" height="30.4883" rx="2.5" ry="2.5" style="stroke:#181818;stroke-width:0.5;" width="206.459" x="965.481" y="561.2148"/><text fill="#000000" font-family="sans-serif" font-size="14" lengthAdjust="spacing" textLength="192.459" x="972.481" y="581.75">ResponseBodyResultHandler</text></g><g class="participant participant-head" data-participant="EncoderHttpMessageWriter"><rect fill="#E2E2F0" height="30.4883" rx="2.5" ry="2.5" style="stroke:#181818;stroke-width:0.5;" width="196.8682" x="1181.9399" y="50"/><text fill="#000000" font-family="sans-serif" font-size="14" lengthAdjust="spacing" textLength="182.8682" x="1188.9399" y="70.5352">EncoderHttpMessageWriter</text></g><g class="participant participant-tail" data-participant="EncoderHttpMessageWriter"><rect fill="#E2E2F0" height="30.4883" rx="2.5" ry="2.5" style="stroke:#181818;stroke-width:0.5;" width="196.8682" x="1181.9399" y="561.2148"/><text fill="#000000" font-family="sans-serif" font-size="14" lengthAdjust="spacing" textLength="182.8682" x="1188.9399" y="581.75">EncoderHttpMessageWriter</text></g><g class="participant participant-head" data-participant="Jackson2JsonEncoder"><rect fill="#E2E2F0" height="30.4883" rx="2.5" ry="2.5" style="stroke:#181818;stroke-width:0.5;" width="157.8828" x="1388.8081" y="50"/><text fill="#000000" font-family="sans-serif" font-size="14" lengthAdjust="spacing" textLength="143.8828" x="1395.8081" y="70.5352">Jackson2JsonEncoder</text></g><g class="participant participant-tail" data-participant="Jackson2JsonEncoder"><rect fill="#E2E2F0" height="30.4883" rx="2.5" ry="2.5" style="stroke:#181818;stroke-width:0.5;" width="157.8828" x="1388.8081" y="561.2148"/><text fill="#000000" font-family="sans-serif" font-size="14" lengthAdjust="spacing" textLength="143.8828" x="1395.8081" y="581.75">Jackson2JsonEncoder</text></g><g class="participant participant-head" data-participant="ReactorServerHttpResponse"><rect fill="#E2E2F0" height="30.4883" rx="2.5" ry="2.5" style="stroke:#181818;stroke-width:0.5;" width="201.3594" x="1556.6909" y="50"/><text fill="#000000" font-family="sans-serif" font-size="14" lengthAdjust="spacing" textLength="187.3594" x="1563.6909" y="70.5352">ReactorServerHttpResponse</text></g><g class="participant participant-tail" data-participant="ReactorServerHttpResponse"><rect fill="#E2E2F0" height="30.4883" rx="2.5" ry="2.5" style="stroke:#181818;stroke-width:0.5;" width="201.3594" x="1556.6909" y="561.2148"/><text fill="#000000" font-family="sans-serif" font-size="14" lengthAdjust="spacing" textLength="187.3594" x="1563.6909" y="581.75">ReactorServerHttpResponse</text></g><g class="message" data-participant-1="RequestMappingHandlerAdapter" data-participant-2="DispatcherHandler"><polygon fill="#181818" points="652.439,108.7988,642.439,112.7988,652.439,116.7988,648.439,112.7988" style="stroke:#181818;stroke-width:1;"/><line style="stroke:#181818;stroke-width:1;" x1="646.439" x2="837.4429" y1="112.7988" y2="112.7988"/><text fill="#000000" font-family="sans-serif" font-size="13" lengthAdjust="spacing" textLength="131.0728" x="658.439" y="108.0566">return HandlerResult</text></g><g class="message" data-participant-1="DispatcherHandler" data-participant-2="ResponseBodyResultHandler"><polygon fill="#181818" points="1056.7104,138.1094,1066.7104,142.1094,1056.7104,146.1094,1060.7104,142.1094" style="stroke:#181818;stroke-width:1;"/><line style="stroke:#181818;stroke-width:1;" x1="641.439" x2="1062.7104" y1="142.1094" y2="142.1094"/><text fill="#000000" font-family="sans-serif" font-size="13" lengthAdjust="spacing" textLength="311.7778" x="648.439" y="137.3672">handleResult(ServerWebExchange, HandlerResult)</text></g><g class="message" data-participant-1="ResponseBodyResultHandler" data-participant-2="EncoderHttpMessageWriter"><polygon fill="#181818" points="1268.374,167.4199,1278.374,171.4199,1268.374,175.4199,1272.374,171.4199" style="stroke:#181818;stroke-width:1;"/><line style="stroke:#181818;stroke-width:1;" x1="1068.7104" x2="1274.374" y1="171.4199" y2="171.4199"/><text fill="#000000" font-family="sans-serif" font-size="13" lengthAdjust="spacing" textLength="118.4282" x="1075.7104" y="166.6777">write(Publisher, ...)</text></g><path d="M1078,184.4199 L1078,204.4199 L1274,204.4199 L1274,194.4199 L1264,184.4199 L1078,184.4199" fill="#FEFFDD" style="stroke:#181818;stroke-width:0.5;"/><path d="M1264,184.4199 L1264,194.4199 L1274,194.4199 L1264,184.4199" fill="#FEFFDD" style="stroke:#181818;stroke-width:0.5;"/><text fill="#000000" font-family="sans-serif" font-size="8" lengthAdjust="spacing" textLength="175.8711" x="1084" y="197.1543">- Publisher = HandlerResult.getReturnValue()</text><g class="message" data-participant-1="EncoderHttpMessageWriter" data-participant-2="Jackson2JsonEncoder"><polygon fill="#181818" points="1455.7495,226.7305,1465.7495,230.7305,1455.7495,234.7305,1459.7495,230.7305" style="stroke:#181818;stroke-width:1;"/><line style="stroke:#181818;stroke-width:1;" x1="1280.374" x2="1461.7495" y1="230.7305" y2="230.7305"/><text fill="#000000" font-family="sans-serif" font-size="13" lengthAdjust="spacing" textLength="132.6089" x="1287.374" y="225.9883">encode(Publisher, ...)</text></g><g class="message" data-participant-1="Jackson2JsonEncoder" data-participant-2="EncoderHttpMessageWriter"><polygon fill="#181818" points="1291.374,256.041,1281.374,260.041,1291.374,264.041,1287.374,260.041" style="stroke:#181818;stroke-width:1;"/><line style="stroke:#181818;stroke-width:1;" x1="1285.374" x2="1466.7495" y1="260.041" y2="260.041"/><text fill="#000000" font-family="sans-serif" font-size="13" lengthAdjust="spacing" textLength="157.0537" x="1297.374" y="255.2988">return Flux&lt;DataBuffer&gt;</text></g><g class="message" data-participant-1="EncoderHttpMessageWriter" data-participant-2="ReactorServerHttpResponse"><polygon fill="#181818" points="1645.3706,285.3516,1655.3706,289.3516,1645.3706,293.3516,1649.3706,289.3516" style="stroke:#181818;stroke-width:1;"/><line style="stroke:#181818;stroke-width:1;" x1="1280.374" x2="1651.3706" y1="289.3516" y2="289.3516"/><text fill="#000000" font-family="sans-serif" font-size="13" lengthAdjust="spacing" textLength="212.9639" x="1287.374" y="284.6094">writeWith(Publisher&lt;DataBuffer&gt;)</text></g><path d="M1553,302.3516 L1553,332.3516 L1652,332.3516 L1652,312.3516 L1642,302.3516 L1553,302.3516" fill="#FEFFDD" style="stroke:#181818;stroke-width:0.5;"/><path d="M1642,302.3516 L1642,312.3516 L1652,312.3516 L1642,302.3516" fill="#FEFFDD" style="stroke:#181818;stroke-width:0.5;"/><text fill="#000000" font-family="sans-serif" font-size="8" lengthAdjust="spacing" textLength="47.8008" x="1559" y="315.0859">- doCommit</text><text fill="#000000" font-family="sans-serif" font-size="8" lengthAdjust="spacing" textLength="73.1602" x="1564.0625" y="325.0859">- writeWithInternal</text><g class="message" data-participant-1="ReactorServerHttpResponse" data-participant-2="HttpServerOperations"><polygon fill="#181818" points="439.9858,354.6621,429.9858,358.6621,439.9858,362.6621,435.9858,358.6621" style="stroke:#181818;stroke-width:1;"/><line style="stroke:#181818;stroke-width:1;" x1="433.9858" x2="1656.3706" y1="358.6621" y2="358.6621"/><text fill="#000000" font-family="sans-serif" font-size="13" lengthAdjust="spacing" textLength="85.2744" x="445.9858" y="353.9199">send(ByteBuf)</text></g><g class="message" data-participant-1="HttpServerOperations" data-participant-2="HttpServerOperations"><line style="stroke:#181818;stroke-width:1;" x1="428.9858" x2="470.9858" y1="387.9727" y2="387.9727"/><line style="stroke:#181818;stroke-width:1;" x1="470.9858" x2="470.9858" y1="387.9727" y2="400.9727"/><line style="stroke:#181818;stroke-width:1;" x1="429.9858" x2="470.9858" y1="400.9727" y2="400.9727"/><polygon fill="#181818" points="439.9858,396.9727,429.9858,400.9727,439.9858,404.9727,435.9858,400.9727" style="stroke:#181818;stroke-width:1;"/><text fill="#000000" font-family="sans-serif" font-size="13" lengthAdjust="spacing" textLength="198.4531" x="435.9858" y="383.2305">create DefaultFullHttpResponse</text></g><g class="message" data-participant-1="HttpServerOperations" data-participant-2="HttpServerOperations"><line style="stroke:#181818;stroke-width:1;" x1="428.9858" x2="470.9858" y1="430.2832" y2="430.2832"/><line style="stroke:#181818;stroke-width:1;" x1="470.9858" x2="470.9858" y1="430.2832" y2="443.2832"/><line style="stroke:#181818;stroke-width:1;" x1="429.9858" x2="470.9858" y1="443.2832" y2="443.2832"/><polygon fill="#181818" points="439.9858,439.2832,429.9858,443.2832,439.9858,447.2832,435.9858,443.2832" style="stroke:#181818;stroke-width:1;"/><text fill="#000000" font-family="sans-serif" font-size="13" lengthAdjust="spacing" textLength="76.4575" x="435.9858" y="425.541">onComplete</text></g><g class="message" data-participant-1="HttpServerOperations" data-participant-2="HttpServerOperations"><line style="stroke:#181818;stroke-width:1;" x1="428.9858" x2="470.9858" y1="472.5938" y2="472.5938"/><line style="stroke:#181818;stroke-width:1;" x1="470.9858" x2="470.9858" y1="472.5938" y2="485.5938"/><line style="stroke:#181818;stroke-width:1;" x1="429.9858" x2="470.9858" y1="485.5938" y2="485.5938"/><polygon fill="#181818" points="439.9858,481.5938,429.9858,485.5938,439.9858,489.5938,435.9858,485.5938" style="stroke:#181818;stroke-width:1;"/><text fill="#000000" font-family="sans-serif" font-size="13" lengthAdjust="spacing" textLength="139.9722" x="435.9858" y="467.8516">onOutboundComplete</text></g><g class="message" data-participant-1="HttpServerOperations" data-participant-2="SocketChannel"><polygon fill="#181818" points="157.3389,510.9043,147.3389,514.9043,157.3389,518.9043,153.3389,514.9043" style="stroke:#181818;stroke-width:1;"/><line style="stroke:#181818;stroke-width:1;" x1="151.3389" x2="427.9858" y1="514.9043" y2="514.9043"/><text fill="#000000" font-family="sans-serif" font-size="13" lengthAdjust="spacing" textLength="254.1982" x="163.3389" y="510.1621">writeAndFlush(DefaultFullHttpResponse)</text></g><g class="message" data-participant-1="SocketChannel" data-participant-2="Client"><polygon fill="#181818" points="38.7524,540.2148,28.7524,544.2148,38.7524,548.2148,34.7524,544.2148" style="stroke:#181818;stroke-width:1;"/><line style="stroke:#181818;stroke-width:1;" x1="32.7524" x2="145.3389" y1="544.2148" y2="544.2148"/><text fill="#000000" font-family="sans-serif" font-size="13" lengthAdjust="spacing" textLength="94.5864" x="44.7524" y="539.4727">HTTP response</text></g><!--SRC=[bLHRRzem57xthpXYBubKUAWs2KLRfHA8MBLU1DLud4no00jZU_P91_lriqbQ6Y1CVKcS-7oNynqdF2Tj8PK25R6vtaBd0Obs7VYKzTDHcZB3BObS6Au8EbEThv7I5LSAPLIXuWvm1usT1cZquej-Q6r-FJ1K1NYHIcY2F8Y_wWs_ZFh3pmtecCXCqRwWVJHeEGcjN9DZXlDCbjjWDykkZ-mEXJESyXNQCLU5HDlOdU3l4XtTSsE4MjOLjmKtT5BeZ1V6WIvsVbrAEaStKhakl9AtV8_EyINEh3YckkFvscbrVUSlDU18QXz9rNEWUjL-wzgjXV88lW6b2JEjQ2h-8lGPOvSQWkxDQHm9MAJIAgYVg-ROILq0juQGm6g_g5v6bNK_bj4sznjBl6gonwoLASYqfPZ0dt2Fdigv5CvRku9UhnUp4098N5p8lmjl8FZMDDDR8ats4VpaiiGetiSSE5aRNJ1vPee9u7vnOl1CxUK-wv64K_rro8aFoiK2xSr5Gwt7fevj9cXrSFQUzds2xOUl2uLEzMOZ2801T0-itvMteBWy1DVA4eoU-w0JS1uS3NQ4tbJCpjMqOtEBt3Smn0Nt0yrAAHlEFqQcbU_IIAIF0nzBckjI5VybQFmew_dSgiBFswsYbZPYra05ckhVcy3u-Vd9dvcwtNy0]--></g></svg>